<svg id="visual" viewBox="0 0 960 300" width="960" height="300" xmlns="http://www.w3.org/2000/svg" xmlns:xlink="http://www.w3.org/1999/xlink" version="1.1"><path d="M0 222L22.8 225C45.7 228 91.3 234 137 226.3C182.7 218.7 228.3 197.3 274 185.5C319.7 173.7 365.3 171.3 411.2 179.8C457 188.3 503 207.7 548.8 218.3C594.7 229 640.3 231 686 218.2C731.7 205.3 777.3 177.7 823 166.5C868.7 155.3 914.3 160.7 937.2 163.3L960 166L960 0L937.2 0C914.3 0 868.7 0 823 0C777.3 0 731.7 0 686 0C640.3 0 594.7 0 548.8 0C503 0 457 0 411.2 0C365.3 0 319.7 0 274 0C228.3 0 182.7 0 137 0C91.3 0 45.7 0 22.8 0L0 0Z" fill="#fd7f20"></path><path d="M0 148L22.8 147.8C45.7 147.7 91.3 147.3 137 153.2C182.7 159 228.3 171 274 166.2C319.7 161.3 365.3 139.7 411.2 138C457 136.3 503 154.7 548.8 160.7C594.7 166.7 640.3 160.3 686 160C731.7 159.7 777.3 165.3 823 162.5C868.7 159.7 914.3 148.3 937.2 142.7L960 137L960 0L937.2 0C914.3 0 868.7 0 823 0C777.3 0 731.7 0 686 0C640.3 0 594.7 0 548.8 0C503 0 457 0 411.2 0C365.3 0 319.7 0 274 0C228.3 0 182.7 0 137 0C91.3 0 45.7 0 22.8 0L0 0Z" fill="#fd8e2a"></path><path d="M0 125L22.8 129.5C45.7 134 91.3 143 137 140.3C182.7 137.7 228.3 123.3 274 114.5C319.7 105.7 365.3 102.3 411.2 110.3C457 118.3 503 137.7 548.8 147.7C594.7 157.7 640.3 158.3 686 157.3C731.7 156.3 777.3 153.7 823 146.3C868.7 139 914.3 127 937.2 121L960 115L960 0L937.2 0C914.3 0 868.7 0 823 0C777.3 0 731.7 0 686 0C640.3 0 594.7 0 548.8 0C503 0 457 0 411.2 0C365.3 0 319.7 0 274 0C228.3 0 182.7 0 137 0C91.3 0 45.7 0 22.8 0L0 0Z" fill="#fd9c35"></path><path d="M0 82L22.8 83C45.7 84 91.3 86 137 88C182.7 90 228.3 92 274 93.2C319.7 94.3 365.3 94.7 411.2 92.7C457 90.7 503 86.3 548.8 83.3C594.7 80.3 640.3 78.7 686 78.5C731.7 78.3 777.3 79.7 823 77.2C868.7 74.7 914.3 68.3 937.2 65.2L960 62L960 0L937.2 0C914.3 0 868.7 0 823 0C777.3 0 731.7 0 686 0C640.3 0 594.7 0 548.8 0C503 0 457 0 411.2 0C365.3 0 319.7 0 274 0C228.3 0 182.7 0 137 0C91.3 0 45.7 0 22.8 0L0 0Z" fill="#fdaa42"></path><path d="M0 57L22.8 53C45.7 49 91.3 41 137 37.5C182.7 34 228.3 35 274 41.2C319.7 47.3 365.3 58.7 411.2 60C457 61.3 503 52.7 548.8 47.7C594.7 42.7 640.3 41.3 686 41C731.7 40.7 777.3 41.3 823 39.7C868.7 38 914.3 34 937.2 32L960 30L960 0L937.2 0C914.3 0 868.7 0 823 0C777.3 0 731.7 0 686 0C640.3 0 594.7 0 548.8 0C503 0 457 0 411.2 0C365.3 0 319.7 0 274 0C228.3 0 182.7 0 137 0C91.3 0 45.7 0 22.8 0L0 0Z" fill="#fdb750"></path></svg>