<svg id="visual" viewBox="0 0 960 300" width="960" height="300" xmlns="http://www.w3.org/2000/svg" xmlns:xlink="http://www.w3.org/1999/xlink" version="1.1"><path d="M0 174L26.7 158.7C53.3 143.3 106.7 112.7 160 95.8C213.3 79 266.7 76 320 93.2C373.3 110.3 426.7 147.7 480 165.2C533.3 182.7 586.7 180.3 640 164.5C693.3 148.7 746.7 119.3 800 111.8C853.3 104.3 906.7 118.7 933.3 125.8L960 133L960 301L933.3 301C906.7 301 853.3 301 800 301C746.7 301 693.3 301 640 301C586.7 301 533.3 301 480 301C426.7 301 373.3 301 320 301C266.7 301 213.3 301 160 301C106.7 301 53.3 301 26.7 301L0 301Z" fill="#FD7F20" stroke-linecap="round" stroke-linejoin="miter"></path></svg>